#!OML:ASF C:\ViconDB\ViconDB\414\Spring2016\041811\Spring2016.ASF
:FULLY-SPECIFIED
:DEGREES
434
root 14.3612 18.5174 -12.4934 729.722 -32.1579 352.765
lowerback 2.61675 2.06906 -6.17697
upperback -0.61248 2.50791 -1.33598
thorax -2.30734 1.31924 1.96063
lowerneck -2.76566 -9.8909 -24.6263
upperneck 11.7645 -16.8194 31.1294
head 9.28166 -8.05268 13.755
rclavicle 7.51406e-014 -1.74931e-014
rhumerus -20.0809 -14.367 -14.3286
rradius 34.1639
rwrist 35.1697
rhand -25.4746 -11.3435
rfingers 7.12502
rthumb 1.05321 -41.3206
lclavicle 7.51406e-014 -1.74931e-014
lhumerus -27.2724 -12.985 10.7982
lradius 23.9053
lwrist -10.1322
lhand -29.2516 21.2403
lfingers 7.12502
lthumb -2.59472 51.2042
rfemur -19.0129 -195.962 -10.0098
rtibia 21.9609
rfoot -3.829 -47.3445
rtoes -38.0916
lfemur -15.9608 -4.61296 -13.828
ltibia 34.8065
lfoot -24.8687 10.6669
ltoes -10.866
435
root 14.3926 18.5617 -12.5402 730.249 -34.3234 352.158
lowerback 2.27652 2.04629 -6.04232
upperback -0.658007 2.51114 -1.16414
thorax -2.16493 1.3183 2.0743
lowerneck -2.4866 -10.1256 -24.279
upperneck 11.6156 -17.1788 30.8188
head 9.21608 -8.24216 13.4568
rclavicle -6.26172e-014 -1.59028e-014
rhumerus -20.1116 -16.0903 -14.0487
rradius 33.2731
rwrist 35.5103
rhand -25.837 -11.3457
rfingers 7.12502
rthumb 0.703157 -41.3243
lclavicle -6.26172e-014 -1.59028e-014
lhumerus -27.6184 -12.6394 11.6005
lradius 23.5292
lwrist -10.5466
lhand -28.4844 20.6347
lfingers 7.12502
lthumb -1.85372 50.6064
rfemur -19.6577 -196.377 -9.29056
rtibia 22.151
rfoot -5.59327 -48.5917
rtoes -37.4605
lfemur -15.6458 -3.99304 -13.5904
ltibia 34.4312
lfoot -24.8283 11.9457
ltoes -10.7237
436
root 14.4229 18.6052 -12.5769 730.755 -36.5638 351.597
lowerback 1.76043 2.03807 -5.92178
upperback -0.581036 2.54932 -1.01915
thorax -1.79944 1.32677 2.17615
lowerneck -2.62242 -10.2175 -24.2803
upperneck 11.3916 -17.34 31.163
head 9.27472 -8.31333 13.5645
rclavicle -5.42682e-014 1.11319e-014
rhumerus -20.0711 -18.6324 -13.5352
rradius 32.1476
rwrist 37.0984
rhand -26.2044 -11.5305
rfingers 7.12502
rthumb 0.348341 -41.5099
lclavicle -5.42682e-014 1.11319e-014
lhumerus -27.8672 -11.8337 12.1504
lradius 23.2282
lwrist -10.3418
lhand -27.9667 19.7535
lfingers 7.12502
lthumb -1.35378 49.7289
rfemur -20.4961 -197.028 -8.82847
rtibia 22.4691
rfoot -7.77215 -49.6418
rtoes -36.9518
lfemur -15.2202 -3.43397 -13.4339
ltibia 34.0726
lfoot -25.047 13.0678
ltoes -10.4326
437
root 14.4511 18.6391 -12.6174 731.301 -38.5788 351.068
lowerback 1.24851 1.967 -5.72737
upperback -0.520228 2.50107 -0.913247
thorax -1.44115 1.29183 2.19942
lowerneck -2.82231 -10.2073 -24.2165
upperneck 11.2232 -17.3368 31.4533
head 9.2946 -8.29783 13.6692
rclavicle 2.06736e-014 1.59028e-014
rhumerus -20.2829 -20.3077 -12.8556
rradius 31.3522
rwrist 37.9891
rhand -26.5196 -11.6931
rfingers 7.12502
rthumb 0.0439417 -41.6728
lclavicle 2.06736e-014 1.59028e-014
lhumerus -28.0785 -11.583 12.6985
lradius 22.9983
lwrist -9.71857
lhand -27.5277 19.0717
lfingers 7.12502
lthumb -0.929748 49.0494
rfemur -21.5921 -198.662 -8.58008
rtibia 22.8868
rfoot -10.2678 -50.8885
rtoes -35.2292
lfemur -14.9933 -2.90698 -13.2893
ltibia 33.879
lfoot -25.1991 14.0508
ltoes -10.1209
438
root 14.4807 18.664 -12.6582 731.701 -40.6969 350.849
lowerback 0.754275 1.92417 -5.71482
upperback -0.508941 2.4791 -0.955745
thorax -1.14779 1.27292 2.16794
lowerneck -2.96883 -10.2129 -23.9375
upperneck 11.1341 -17.3615 31.5451
head 9.28649 -8.29136 13.6362
rclavicle 4.57205e-014 -1.27222e-014
rhumerus -20.7109 -21.6471 -11.9247
rradius 30.7324
rwrist 38.791
rhand -26.0815 -11.8742
rfingers 7.12502
rthumb 0.467004 -41.8534
lclavicle 4.57205e-014 -1.27222e-014
lhumerus -28.2789 -11.0041 13.0111
lradius 22.724
lwrist -10.5677
lhand -27.0585 18.9944
lfingers 7.12502
lthumb -0.476601 48.9736
rfemur -22.6369 -200.173 -8.70655
rtibia 23.2985
rfoot -12.6188 -52.0118
rtoes -34.3887
lfemur -14.8585 -2.31222 -13.5059
ltibia 33.7656
lfoot -25.276 15.2045
ltoes -9.98792
439
root 14.5106 18.6798 -12.7094 732.245 -42.6666 350.352
lowerback 0.476088 1.87697 -5.48016
upperback -0.515332 2.43846 -0.93786
thorax -0.985607 1.24743 2.06674
lowerneck -3.2753 -10.2327 -23.6869
upperneck 11.1854 -17.3936 31.5666
head 9.35246 -8.27457 13.578
rclavicle 8.52786e-014 -2.8625e-014
rhumerus -21.3072 -22.5306 -10.7991
rradius 30.2014
rwrist 39.3787
rhand -25.8108 -12.027
rfingers 7.12502
rthumb 0.728437 -42.0055
lclavicle 8.52786e-014 -2.8625e-014
lhumerus -28.348 -10.8874 13.2691
lradius 22.4791
lwrist -11.2959
lhand -26.714 19.0912
lfingers 7.12502
lthumb -0.143874 49.0709
rfemur -23.7915 -201.084 -8.55606
rtibia 23.7822
rfoot -13.4164 -53.1153
rtoes -32.9685
lfemur -14.7394 -1.85379 -13.4151
ltibia 33.7014
lfoot -25.454 16.1589
ltoes -10.4458
440
root 14.5416 18.7025 -12.766 732.731 -44.5608 349.908
lowerback 0.210516 1.7695 -5.24424
upperback -0.420419 2.31821 -0.981542
thorax -0.718173 1.17793 1.90432
lowerneck -3.3647 -10.0652 -23.5938
upperneck 10.851 -17.1762 32.0397
head 9.24717 -8.16827 13.8024
rclavicle 5.96354e-014 -4.6118e-014
rhumerus -21.9634 -24.1607 -9.39813
rradius 29.3287
rwrist 41.7136
rhand -25.9503 -10.9831
rfingers 7.12502
rthumb 0.593754 -40.9621
lclavicle 5.96354e-014 -4.6118e-014
lhumerus -28.4701 -10.7321 13.3071
lradius 22.5251
lwrist -10.686
lhand -26.4368 19.1593
lfingers 7.12502
lthumb 0.123913 49.139
rfemur -24.9752 -201.519 -8.3784
rtibia 24.3365
rfoot -13.0244 -54.0693
rtoes -32.0678
lfemur -14.594 -1.35954 -13.3487
ltibia 33.5674
lfoot -25.6259 16.9916
ltoes -10.1593
441
root 14.5764 18.7183 -12.8278 733.183 -46.4093 349.568
lowerback 0.153401 1.66947 -5.15704
upperback -0.440204 2.18837 -0.97749
thorax -0.69394 1.11246 1.86336
lowerneck -4.01544 -10.1362 -23.09
upperneck 11.3151 -17.191 31.4081
head 9.38923 -8.09974 13.396
rclavicle -4.9895e-014 1.90833e-014
rhumerus -22.465 -26.5236 -7.61215
rradius 28.1836
rwrist 44.7054
rhand -25.8682 -9.74435
rfingers 7.12502
rthumb 0.673034 -39.723
lclavicle -4.9895e-014 1.90833e-014
lhumerus -28.503 -9.84673 13.0903
lradius 22.0385
lwrist -12.1909
lhand -26.9037 18.7548
lfingers 7.12502
lthumb -0.327121 48.7343
rfemur -26.0749 -201.533 -8.23322
rtibia 24.8743
rfoot -12.0925 -54.7731
rtoes -31.4125
lfemur -14.5118 -0.759645 -13.3795
ltibia 33.4242
lfoot -25.7643 17.7759
ltoes -9.91884
442
root 14.6076 18.728 -12.8856 733.507 -48.46 349.404
lowerback 0.0403465 1.60051 -5.1927
upperback -0.451833 2.10231 -1.02906
thorax -0.635796 1.06803 1.83481
lowerneck -4.29483 -10.1008 -23.0035
upperneck 11.4344 -17.1203 31.3143
head 9.43837 -8.0443 13.3448
rclavicle -9.10434e-014 3.18055e-015
rhumerus -23.0748 -26.2653 -6.39001
rradius 28.0103
rwrist 44.3987
rhand -25.6239 -11.0202
rfingers 7.12502
rthumb 0.908986 -40.998
lclavicle -9.10434e-014 3.18055e-015
lhumerus -28.6815 -9.41156 12.8166
lradius 21.9706
lwrist -12.6295
lhand -26.9214 18.7342
lfingers 7.12502
lthumb -0.344147 48.7136
rfemur -27.1217 -201.424 -8.31606
rtibia 25.429
rfoot -10.9389 -55.4054
rtoes -30.6774
lfemur -14.3156 -0.0580123 -13.6323
ltibia 33.1501
lfoot -25.8792 18.6449
ltoes -9.744
443
root 14.6417 18.7453 -12.9451 733.952 -50.3681 349.163
lowerback 0.0230718 1.45417 -5.11957
upperback -0.51472 1.90526 -1.09742
thorax -0.672152 0.970611 1.72565
lowerneck -4.80715 -10.0181 -22.6829
upperneck 11.6452 -16.9148 30.9644
head 9.4591 -7.89532 13.1476
rclavicle -8.32908e-014 3.18055e-014
rhumerus -23.7291 -26.8001 -5.03835
rradius 27.6833
rwrist 44.7119
rhand -25.7663 -11.6202
rfingers 7.12502
rthumb 0.77144 -41.5986
lclavicle -8.32908e-014 3.18055e-014
lhumerus -28.7091 -8.78766 12.3628
lradius 21.7582
lwrist -13.0455
lhand -26.891 18.7237
lfingers 7.12502
lthumb -0.314852 48.7032
rfemur -28.0504 -201.158 -8.22708
rtibia 26.0133
rfoot -9.40811 -55.8807
rtoes -30.201
lfemur -14.2576 0.711848 -13.7774
ltibia 32.8641
lfoot -26.04 19.3282
ltoes -9.77282
444
root 14.6683 18.7584 -13.0079 734.223 -52.3545 349.021
lowerback 0.0554714 1.39804 -5.24384
upperback -0.538291 1.82521 -1.17216
thorax -0.710773 0.931707 1.71783
lowerneck -4.97571 -10.0291 -22.418
upperneck 11.7548 -16.8679 30.5411
head 9.42525 -7.8565 12.9019
rclavicle -4.9895e-014 1.90833e-014
rhumerus -24.672 -27.3076 -3.39424
rradius 27.4355
rwrist 45.0633
rhand -25.7709 -11.7762
rfingers 7.12502
rthumb 0.767003 -41.7546
lclavicle -4.9895e-014 1.90833e-014
lhumerus -28.7067 -8.4457 11.996
lradius 21.7819
lwrist -13.2897
lhand -26.9565 19.5517
lfingers 7.12502
lthumb -0.378113 49.5311
rfemur -29.0465 -200.777 -8.26607
rtibia 26.6221
rfoot -7.76831 -56.2265
rtoes -29.4118
lfemur -14.0292 1.81004 -14.0144
ltibia 32.5348
lfoot -26.1673 19.8497
ltoes -9.50423
445
root 14.7039 18.7633 -13.072 734.875 -54.1925 348.535
lowerback 0.151515 1.20633 -5.03505
upperback -0.61105 1.56162 -1.17738
thorax -0.815409 0.802408 1.59589
lowerneck -5.77302 -9.87614 -22.2449
upperneck 12.2597 -16.6032 30.3346
head 9.62267 -7.65878 12.833
rclavicle 5.96354e-015 2.8625e-014
rhumerus -25.3179 -27.9862 -1.95907
rradius 27.2088
rwrist 45.3585
rhand -26.0887 -11.733
rfingers 7.12502
rthumb 0.460049 -41.7122
lclavicle 5.96354e-015 2.8625e-014
lhumerus -28.9131 -7.87124 11.4096
lradius 21.7242
lwrist -13.7077
lhand -27.145 19.7404
lfingers 7.12502
lthumb -0.560096 49.7194
rfemur -29.8409 -200.606 -8.0183
rtibia 27.1753
rfoot -6.48504 -56.4544
rtoes -28.6437
lfemur -14.0037 2.6881 -14.0556
ltibia 32.2782
lfoot -26.325 20.5907
ltoes -9.19689
446
root 14.738 18.7673 -13.1401 735.204 -56.1378 348.395
lowerback 0.314697 1.00586 -5.23789
upperback -0.607477 1.28107 -1.22064
thorax -0.888859 0.664478 1.66504
lowerneck -6.4098 -9.68759 -21.8515
upperneck 12.3287 -16.2776 30.3045
head 9.62725 -7.43897 12.7852
rclavicle -5.24792e-014 -1.90833e-014
rhumerus -25.9137 -28.3519 -0.755425
rradius 27.1761
rwrist 45.3171
rhand -25.9721 -13.0929
rfingers 7.12502
rthumb 0.572672 -43.0718
lclavicle -5.24792e-014 -1.90833e-014
lhumerus -29.1051 -7.31382 10.7353
lradius 21.6165
lwrist -14.4787
lhand -27.2535 20.1411
lfingers 7.12502
lthumb -0.664972 50.1198
rfemur -30.5148 -200.308 -7.99831
rtibia 27.6705
rfoot -5.61982 -56.7571
rtoes -28.0451
lfemur -13.9353 3.69075 -14.3265
ltibia 32.0498
lfoot -26.6994 21.2377
ltoes -8.85832
